<svg width="1400" height="550" viewBox="0 0 1400 550" xmlns="http://www.w3.org/2000/svg" role="img" aria-label="Estatistica avancada dinamica">
  <defs>
    <linearGradient id="bgStat" x1="0" y1="0" x2="1400" y2="550" gradientUnits="userSpaceOnUse">
      <stop offset="0" stop-color="#040919"/>
      <stop offset="0.58" stop-color="#061328"/>
      <stop offset="1" stop-color="#081b33"/>
    </linearGradient>
    <linearGradient id="accentStat" x1="0" y1="0" x2="1" y2="0">
      <stop offset="0" stop-color="#00e5ff"/>
      <stop offset="1" stop-color="#ff2bd6"/>
    </linearGradient>
    <pattern id="gridStat" width="24" height="24" patternUnits="userSpaceOnUse">
      <path d="M24 0H0V24" stroke="#38bdf8" stroke-opacity="0.15" stroke-width="1"/>
      <animateTransform attributeName="patternTransform" type="translate" dur="16s" repeatCount="indefinite" values="0 0;24 24;0 0"/>
    </pattern>
    <linearGradient id="statAreaevolucaomensal" x1="0" y1="0" x2="0" y2="1">
      <stop offset="0" stop-color="#00e5ff" stop-opacity="0.38"/>
      <stop offset="1" stop-color="#ff2bd6" stop-opacity="0.06"/>
    </linearGradient>
  </defs>
  <rect width="1400" height="550" rx="18" fill="url(#bgStat)"/>
  <rect width="1400" height="550" rx="18" fill="url(#gridStat)"/>
  <rect x="36" y="28" width="1328" height="494" rx="14" fill="#020617" fill-opacity="0.52" stroke="#38bdf8" stroke-opacity="0.28"/>
  <rect x="52" y="48" width="350" height="34" rx="8" fill="#0b1221" stroke="#00e5ff" stroke-opacity="0.6"/>
  <text x="68" y="71" fill="#e6fbff" font-family="JetBrains Mono, Consolas, monospace" font-size="16" font-weight="700">ESTATISTICA AVANCADA</text>
  <rect x="416" y="48" width="318" height="34" rx="8" fill="#0b1221" stroke="#ff2bd6" stroke-opacity="0.55"/>
  <text x="432" y="71" fill="#bff6ff" font-family="JetBrains Mono, Consolas, monospace" font-size="16" font-weight="700">EVOLUCAO MENSAL</text>
  <line x1="52" y1="92" x2="1348" y2="92" stroke="url(#accentStat)" stroke-width="2" stroke-opacity="0.85"/>
  <text x="54" y="124" fill="#e2f6ff" font-family="JetBrains Mono, Consolas, monospace" font-size="24" font-weight="700">EVOLUCAO MENSAL</text>
  <text x="54" y="146" fill="#9fd8f5" font-family="JetBrains Mono, Consolas, monospace" font-size="16" font-weight="600">Commits e eventos no periodo</text>
  <rect x="52" y="164" width="1296" height="194" rx="12" fill="#020617" fill-opacity="0.58" stroke="#38bdf8" stroke-opacity="0.2"/>
  <text x="68" y="186" fill="#93c5fd" font-family="JetBrains Mono, Consolas, monospace" font-size="12" font-weight="700">REGISTROS POR MES</text>
  <line x1="86" y1="180" x2="1320" y2="180" stroke="#7dd3fc" stroke-opacity="0.12" stroke-width="1"/>
<line x1="86" y1="216" x2="1320" y2="216" stroke="#7dd3fc" stroke-opacity="0.12" stroke-width="1"/>
<line x1="86" y1="251" x2="1320" y2="251" stroke="#7dd3fc" stroke-opacity="0.12" stroke-width="1"/>
<line x1="86" y1="287" x2="1320" y2="287" stroke="#7dd3fc" stroke-opacity="0.12" stroke-width="1"/>
<line x1="86" y1="322" x2="1320" y2="322" stroke="#7dd3fc" stroke-opacity="0.28" stroke-width="1"/>
<path d="M 86 322 L 262 322 L 439 322 L 615 322 L 791 317 L 967 284 L 1144 247 L 1320 180 L 1320 322 L 86 322 Z" fill="url(#statAreaevolucaomensal)"/>
<path d="M 86 322 L 262 322 L 439 322 L 615 322 L 791 317 L 967 284 L 1144 247 L 1320 180" fill="none" stroke="#00e5ff" stroke-width="3" stroke-linecap="round" stroke-linejoin="round"/>
<g>
  <circle cx="86" cy="322" r="4.6" fill="#00e5ff" stroke="#ecfeff" stroke-opacity="0.7"/>
  <text x="86" y="313" text-anchor="middle" fill="#d7f4ff" font-family="JetBrains Mono, Consolas, monospace" font-size="10.5" font-weight="700">0</text>
  <text x="86" y="344" text-anchor="middle" fill="#9fc6dd" font-family="JetBrains Mono, Consolas, monospace" font-size="10.8" font-weight="600">ago/25</text>
</g>
<g>
  <circle cx="262" cy="322" r="4.6" fill="#00e5ff" stroke="#ecfeff" stroke-opacity="0.7"/>
  
  <text x="262" y="344" text-anchor="middle" fill="#9fc6dd" font-family="JetBrains Mono, Consolas, monospace" font-size="10.8" font-weight="600">set/25</text>
</g>
<g>
  <circle cx="439" cy="322" r="4.6" fill="#00e5ff" stroke="#ecfeff" stroke-opacity="0.7"/>
  <text x="439" y="313" text-anchor="middle" fill="#d7f4ff" font-family="JetBrains Mono, Consolas, monospace" font-size="10.5" font-weight="700">0</text>
  <text x="439" y="344" text-anchor="middle" fill="#9fc6dd" font-family="JetBrains Mono, Consolas, monospace" font-size="10.8" font-weight="600">out/25</text>
</g>
<g>
  <circle cx="615" cy="322" r="4.6" fill="#00e5ff" stroke="#ecfeff" stroke-opacity="0.7"/>
  
  <text x="615" y="344" text-anchor="middle" fill="#9fc6dd" font-family="JetBrains Mono, Consolas, monospace" font-size="10.8" font-weight="600">nov/25</text>
</g>
<g>
  <circle cx="791" cy="317" r="4.6" fill="#00e5ff" stroke="#ecfeff" stroke-opacity="0.7"/>
  <text x="791" y="308" text-anchor="middle" fill="#d7f4ff" font-family="JetBrains Mono, Consolas, monospace" font-size="10.5" font-weight="700">3</text>
  <text x="791" y="344" text-anchor="middle" fill="#9fc6dd" font-family="JetBrains Mono, Consolas, monospace" font-size="10.8" font-weight="600">dez/25</text>
</g>
<g>
  <circle cx="967" cy="284" r="4.6" fill="#00e5ff" stroke="#ecfeff" stroke-opacity="0.7"/>
  
  <text x="967" y="344" text-anchor="middle" fill="#9fc6dd" font-family="JetBrains Mono, Consolas, monospace" font-size="10.8" font-weight="600">jan/26</text>
</g>
<g>
  <circle cx="1144" cy="247" r="4.6" fill="#00e5ff" stroke="#ecfeff" stroke-opacity="0.7"/>
  <text x="1144" y="238" text-anchor="middle" fill="#d7f4ff" font-family="JetBrains Mono, Consolas, monospace" font-size="10.5" font-weight="700">46</text>
  <text x="1144" y="344" text-anchor="middle" fill="#9fc6dd" font-family="JetBrains Mono, Consolas, monospace" font-size="10.8" font-weight="600">fev/26</text>
</g>
<g>
  <circle cx="1320" cy="180" r="4.6" fill="#00e5ff" stroke="#ecfeff" stroke-opacity="0.7"/>
  <text x="1320" y="171" text-anchor="middle" fill="#d7f4ff" font-family="JetBrains Mono, Consolas, monospace" font-size="10.5" font-weight="700">87</text>
  <text x="1320" y="344" text-anchor="middle" fill="#9fc6dd" font-family="JetBrains Mono, Consolas, monospace" font-size="10.8" font-weight="600">mar/26</text>
</g>
  <text x="58" y="394" fill="#d9f4ff" font-family="JetBrains Mono, Consolas, monospace" font-size="17" font-weight="600">- Mes atual (mar. de 26): 87 registros.</text>
<text x="58" y="418" fill="#d9f4ff" font-family="JetBrains Mono, Consolas, monospace" font-size="17" font-weight="600">- Mes anterior (fev. de 26): 46 registros.</text>
<text x="58" y="442" fill="#d9f4ff" font-family="JetBrains Mono, Consolas, monospace" font-size="17" font-weight="600">- Variacao mensal: +41.</text>
<text x="58" y="466" fill="#d9f4ff" font-family="JetBrains Mono, Consolas, monospace" font-size="17" font-weight="600">- Pico no periodo: mar. de 26 (87).</text>
  <line x1="52" y1="506" x2="1348" y2="506" stroke="#38bdf8" stroke-opacity="0.32"/>
  <text x="54" y="530" fill="#a8d9f4" font-family="JetBrains Mono, Consolas, monospace" font-size="16">
    atualizado: agora
  </text>
</svg>