<svg width="1400" height="420" viewBox="0 0 1400 420" fill="none" xmlns="http://www.w3.org/2000/svg" role="img" aria-label="Neon tech grid background">
  <defs>
    <linearGradient id="bg" x1="0" y1="0" x2="1400" y2="420" gradientUnits="userSpaceOnUse">
      <stop offset="0" stop-color="#030712"/>
      <stop offset="0.55" stop-color="#051a2f"/>
      <stop offset="1" stop-color="#0b1020"/>
    </linearGradient>
    <radialGradient id="glowA" cx="0" cy="0" r="1" gradientUnits="userSpaceOnUse" gradientTransform="translate(180 70) rotate(15) scale(520 240)">
      <stop offset="0" stop-color="#00e5ff" stop-opacity="0.5"/>
      <stop offset="1" stop-color="#00e5ff" stop-opacity="0"/>
    </radialGradient>
    <radialGradient id="glowB" cx="0" cy="0" r="1" gradientUnits="userSpaceOnUse" gradientTransform="translate(1210 90) rotate(-15) scale(500 240)">
      <stop offset="0" stop-color="#ff2bd6" stop-opacity="0.4"/>
      <stop offset="1" stop-color="#ff2bd6" stop-opacity="0"/>
    </radialGradient>
    <pattern id="grid" x="0" y="0" width="36" height="36" patternUnits="userSpaceOnUse">
      <path d="M36 0H0V36" stroke="#22d3ee" stroke-opacity="0.22" stroke-width="1"/>
    </pattern>
    <filter id="soft" x="-30%" y="-30%" width="160%" height="160%">
      <feGaussianBlur stdDeviation="10"/>
    </filter>
    <linearGradient id="lineA" x1="0" y1="0" x2="1" y2="0">
      <stop offset="0" stop-color="#00e5ff" stop-opacity="0"/>
      <stop offset="0.5" stop-color="#00e5ff" stop-opacity="0.9"/>
      <stop offset="1" stop-color="#00e5ff" stop-opacity="0"/>
    </linearGradient>
    <linearGradient id="lineB" x1="0" y1="0" x2="1" y2="0">
      <stop offset="0" stop-color="#ff2bd6" stop-opacity="0"/>
      <stop offset="0.5" stop-color="#ff2bd6" stop-opacity="0.8"/>
      <stop offset="1" stop-color="#ff2bd6" stop-opacity="0"/>
    </linearGradient>
  </defs>

  <rect width="1400" height="420" fill="url(#bg)"/>
  <rect width="1400" height="420" fill="url(#glowA)"/>
  <rect width="1400" height="420" fill="url(#glowB)"/>
  <rect width="1400" height="420" fill="url(#grid)"/>

  <g opacity="0.55">
    <path d="M0 300H1400" stroke="url(#lineA)" stroke-width="2"/>
    <path d="M0 338H1400" stroke="url(#lineA)" stroke-width="2"/>
    <path d="M0 376H1400" stroke="url(#lineA)" stroke-width="2"/>
  </g>

  <g stroke="#00e5ff" stroke-opacity="0.24" stroke-width="1.2">
    <path d="M700 420L100 250"/>
    <path d="M700 420L220 250"/>
    <path d="M700 420L340 250"/>
    <path d="M700 420L460 250"/>
    <path d="M700 420L580 250"/>
    <path d="M700 420L820 250"/>
    <path d="M700 420L940 250"/>
    <path d="M700 420L1060 250"/>
    <path d="M700 420L1180 250"/>
    <path d="M700 420L1300 250"/>
  </g>

  <g filter="url(#soft)" opacity="0.45">
    <ellipse cx="700" cy="165" rx="260" ry="80" fill="#00e5ff"/>
    <ellipse cx="700" cy="165" rx="170" ry="44" fill="#ff2bd6"/>
  </g>

  <text x="700" y="152" text-anchor="middle" font-family="JetBrains Mono, Consolas, monospace" font-size="62" font-weight="700" fill="#e6fbff" letter-spacing="2">
    KAIKY BRITO
  </text>
  <text x="700" y="198" text-anchor="middle" font-family="JetBrains Mono, Consolas, monospace" font-size="20" font-weight="600" fill="#bff6ff" letter-spacing="1.6">
    PROFILE SYSTEM // NODE // AUTOMACAO // SEGURANCA
  </text>
</svg>
